<?xml version="1.0" encoding="utf-8"?>
<svg version="1.1" x="0px" y="0px" viewBox="0 0 174 64" enable-background="new 0 0 64 64" width="1px" style="" xmlns="http://www.w3.org/2000/svg" xmlns:xlink="http://www.w3.org/1999/xlink" xmlns:bx="https://boxy-svg.com">
  <defs>
    <linearGradient id="gradient-5" bx:pinned="true">
      <stop offset="0" style="stop-color: rgb(58, 110, 242);"/>
      <stop offset="1" style="stop-color: rgb(24, 79, 220);"/>
    </linearGradient>
    <linearGradient id="gradient-0" bx:pinned="true">
      <stop offset="0" style="stop-color: rgb(252, 252, 252);"/>
      <stop offset="1" style="stop-color: rgba(215, 215, 215, 0.9);"/>
    </linearGradient>
    <linearGradient id="color-0" bx:pinned="true">
      <stop style="stop-color: #bdc3c7;" offset="0"/>
      <stop style="stop-color: #2c3e50;" offset="1"/>
    </linearGradient>
    <linearGradient id="gradient-0-5" gradientUnits="userSpaceOnUse" x1="115.646" y1="17.035" x2="115.646" y2="48.293" gradientTransform="matrix(1, 0, 0, 1, -2.00111, 0.367106)" xlink:href="#gradient-0"/>
    <linearGradient id="gradient-5-0" gradientUnits="userSpaceOnUse" x1="54.5" y1="35.914" x2="54.5" y2="49" xlink:href="#gradient-5"/>
    <linearGradient id="gradient-5-1" gradientUnits="userSpaceOnUse" x1="9.5" y1="35.914" x2="9.5" y2="49" xlink:href="#gradient-5"/>
    <linearGradient id="gradient-5-2" gradientUnits="userSpaceOnUse" x1="32" y1="19" x2="32" y2="49" xlink:href="#gradient-5"/>
    <linearGradient id="gradient-5-3" gradientUnits="userSpaceOnUse" x1="22" y1="11" x2="22" y2="53" xlink:href="#gradient-5"/>
    <linearGradient id="gradient-5-4" gradientUnits="userSpaceOnUse" x1="42" y1="11" x2="42" y2="53" xlink:href="#gradient-5"/>
  </defs>
  <g style="" transform="matrix(0.857143, 0, 0, 0.845732, 5.028159, 5.614667)">
    <path d="M49,35.914V49h11c0,0,0-1,0-3.001L49,35.914z" style="paint-order: stroke; fill: url('#gradient-5-0');"/>
    <path d="M15,35.914L4,45.999C4,48,4,49,4,49h11V35.914z" style="paint-order: stroke; fill: url('#gradient-5-1');"/>
    <path d="M 32 19 C 30.838 19 29.705 19.095 28.623 19.269 L 28.626 19.287 C 28.874 20.782 29 22.341 29 23.92 L 29 49 L 35 49 L 35 23.92 C 35 22.348 35.126 20.792 35.374 19.296 C 35.375 19.288 35.377 19.281 35.378 19.274 C 34.296 19.096 33.163 19 32 19 Z" style="paint-order: stroke; fill: url('#gradient-5-2');"/>
    <path d="M27.64,19.45h-0.01C26.79,14.51,24.59,11,22,11c-3.32,0-6,5.78-6,12.92V53h3.5v-9.9c0-0.17,0.224-0.308,0.5-0.308   s0.5,0.138,0.5,0.308V53H28V23.92C28,22.35,27.87,20.84,27.64,19.45z" style="paint-order: stroke; fill: url('#gradient-5-3');"/>
    <path d="M42,11c-2.59,0-4.79,3.52-5.64,8.46C36.13,20.85,36,22.35,36,23.92V53h7.5v-9.9c0-0.17,0.224-0.308,0.5-0.308   s0.5,0.138,0.5,0.308V53H48V23.92C48,16.78,45.32,11,42,11z" style="paint-order: stroke; fill: url('#gradient-5-4');"/>
  </g>
  <text style="fill: url('#gradient-0-5'); font-family: 'Gill Sans'; font-size: 30px; letter-spacing: 0.2px; white-space: pre;" x="64.632" y="42.73">GitPack</text>
</svg>